<svg width="166" height="100" viewBox="0 0 166 100" fill="none" xmlns="http://www.w3.org/2000/svg">
<path d="M69.9302 26.512C69.1862 26.224 67.9142 25.984 66.8102 26.104C64.6502 26.368 63.7622 27.808 63.7622 30.88V31.384H61.7222V31.6H63.7622V41.344C63.7622 42.544 63.5462 42.808 62.3222 42.808H61.8422V43H68.0822V42.808H66.7622C65.5382 42.808 65.3222 42.544 65.3222 41.344V31.6H69.5462V31.384H65.3222V29.632C65.3222 27.04 65.9462 26.536 66.7142 26.344C67.6022 26.128 68.6822 26.872 69.2342 27.352C69.7382 27.784 70.3622 27.808 70.5302 27.424C70.6982 27.04 70.3862 26.704 69.9302 26.512ZM81.8423 41.656C81.3863 42.376 80.5943 42.928 80.0183 42.856C79.5383 42.808 79.2743 42.424 79.2743 41.2V35.632C79.2743 32.56 77.6903 31.216 74.9543 31.216C73.6823 31.216 72.2663 31.744 71.2583 32.368C70.8263 32.656 70.6823 33.112 70.9223 33.4C71.2103 33.76 71.6903 33.76 72.2903 33.184C73.0583 32.44 73.6343 31.408 74.9062 31.408C76.4663 31.408 77.7383 31.984 77.7383 34.816C77.4503 35.344 76.6823 36.28 74.4023 36.664C71.6903 37.12 69.4343 37.768 69.5303 40.288C69.6023 42.376 71.7863 43.24 73.6823 43.144C76.3223 43 77.4983 40.528 77.7383 39.232C77.7383 39.448 77.7383 40.864 77.7383 41.056C77.7383 42.472 78.5063 43.144 79.6823 43.144C80.7623 43.144 81.5782 42.328 81.9623 41.752L81.8423 41.656ZM77.7383 38.08C77.7383 40.216 76.2983 42.568 74.3303 42.76C72.6023 42.928 71.0423 42.088 70.9223 40.192C70.8023 37.96 72.6503 37.216 74.1143 36.904C76.6823 36.4 77.2343 35.68 77.7383 35.104C77.7383 35.872 77.7383 37 77.7383 38.08ZM87.4809 36.16C85.8729 35.464 84.3849 34.984 84.3849 33.64C84.3609 32.152 86.0169 31.432 87.2889 31.48C90.1449 31.576 91.1289 32.848 91.1289 35.056C91.1289 35.44 91.1289 35.968 91.1289 35.968H91.2729V31.144H91.1289C91.1289 31.144 91.1289 31.312 91.1289 31.6C91.1289 31.936 91.0809 32.272 90.7929 32.272C90.3369 32.248 89.7369 31.288 87.3129 31.216C86.5449 31.192 83.7609 31.552 83.4009 33.664C83.0649 35.704 84.6249 36.712 87.2169 37.72C89.5209 38.608 91.0809 39.232 90.9849 40.72C90.8889 42.256 89.0889 42.976 87.2409 42.88C85.5129 42.808 82.8489 41.704 82.8489 39.304C82.8489 39.04 82.8489 38.392 82.8489 38.392H82.6809V43.216H82.8489C82.8489 43.216 82.8489 43.072 82.8489 42.856C82.8489 42.352 82.9209 41.872 83.2569 41.8C83.8809 41.704 84.9609 43.072 87.5289 43.144C89.7849 43.216 91.8249 42.208 92.0649 40.096C92.3289 37.72 89.3289 36.952 87.4809 36.16ZM100.906 40.888C100.426 41.488 99.6341 42.808 98.2661 42.808C97.2821 42.808 96.4181 42.304 96.4181 40V31.6H99.9941V31.384H96.4181V27.664C96.4181 27.664 96.3221 27.664 96.2501 27.664C95.8421 29.632 94.6181 31.384 92.8181 31.384V31.6H94.8581V39.592C94.8581 42.088 95.8661 43.144 98.0021 43.144C99.5621 43.144 100.642 41.464 101.026 41.008L100.906 40.888ZM122.033 31.384V31.6H122.081C123.305 31.6 123.641 31.888 123.185 33.04L120.017 41.248L116.489 33.04C116.009 31.96 116.009 31.6 117.233 31.6H117.593V31.384H112.601V31.6H112.865C114.089 31.6 114.425 31.912 114.929 33.064L115.985 35.464L113.489 41.368L109.769 33.04C109.265 31.96 109.265 31.6 110.465 31.6H110.825V31.384H105.832V31.6H106.096C107.321 31.6 107.657 31.912 108.185 33.064L112.793 43H113.057L116.129 35.752L119.321 43H119.609L123.449 33.04C123.833 32.08 124.145 31.6 125.249 31.6H125.417V31.384H122.033ZM137.155 41.656C136.699 42.376 135.907 42.928 135.331 42.856C134.851 42.808 134.587 42.424 134.587 41.2V35.632C134.587 32.56 133.003 31.216 130.267 31.216C128.995 31.216 127.579 31.744 126.571 32.368C126.139 32.656 125.995 33.112 126.235 33.4C126.523 33.76 127.003 33.76 127.603 33.184C128.371 32.44 128.947 31.408 130.219 31.408C131.779 31.408 133.051 31.984 133.051 34.816C132.763 35.344 131.995 36.28 129.715 36.664C127.003 37.12 124.747 37.768 124.843 40.288C124.915 42.376 127.099 43.24 128.995 43.144C131.635 43 132.811 40.528 133.051 39.232C133.051 39.448 133.051 40.864 133.051 41.056C133.051 42.472 133.819 43.144 134.995 43.144C136.075 43.144 136.891 42.328 137.275 41.752L137.155 41.656ZM133.051 38.08C133.051 40.216 131.611 42.568 129.643 42.76C127.915 42.928 126.355 42.088 126.235 40.192C126.115 37.96 127.963 37.216 129.427 36.904C131.995 36.4 132.547 35.68 133.051 35.104C133.051 35.872 133.051 37 133.051 38.08ZM145.132 31.384V31.6H145.18C146.404 31.6 146.716 31.864 146.212 33.064L142.804 41.152L139.348 33.064C138.868 31.936 138.892 31.6 140.116 31.6H140.452V31.384H135.46V31.6H135.724C136.948 31.6 137.284 31.888 137.764 33.064L141.988 43C140.14 47.104 138.82 47.176 136.42 46.84C135.82 46.768 135.436 46.816 135.388 47.296C135.34 47.776 135.724 47.944 136.324 48.016C138.34 48.256 140.284 47.536 142.276 43L146.476 33.064C146.884 32.08 147.244 31.6 148.324 31.6H148.516V31.384H145.132Z" fill="white"/>
<path d="M83 80L78 77.1133L78 82.8868L83 80ZM25 80.5L78.5 80.5L78.5 79.5L25 79.5L25 80.5Z" fill="white"/>
<path d="M25 20L22.1132 25L27.8867 25L25 20ZM25.5 80L25.5 24.5L24.5 24.5L24.5 80L25.5 80Z" fill="white"/>
<rect x="0.5" y="0.5" width="165" height="99" stroke="white"/>
</svg>
