<svg width="166" height="100" viewBox="0 0 166 100" fill="none" xmlns="http://www.w3.org/2000/svg">
<path d="M33.9575 26.512C33.2135 26.224 31.9415 25.984 30.8375 26.104C28.6775 26.368 27.7895 27.808 27.7895 30.88V31.384H25.7495V31.6H27.7895V41.344C27.7895 42.544 27.5735 42.808 26.3495 42.808H25.8695V43H32.1095V42.808H30.7895C29.5655 42.808 29.3495 42.544 29.3495 41.344V31.6H33.5735V31.384H29.3495V29.632C29.3495 27.04 29.9735 26.536 30.7415 26.344C31.6295 26.128 32.7095 26.872 33.2615 27.352C33.7655 27.784 34.3895 27.808 34.5575 27.424C34.7255 27.04 34.4135 26.704 33.9575 26.512ZM45.8696 41.656C45.4136 42.376 44.6216 42.928 44.0456 42.856C43.5656 42.808 43.3016 42.424 43.3016 41.2V35.632C43.3016 32.56 41.7176 31.216 38.9816 31.216C37.7096 31.216 36.2936 31.744 35.2856 32.368C34.8536 32.656 34.7096 33.112 34.9496 33.4C35.2376 33.76 35.7176 33.76 36.3176 33.184C37.0856 32.44 37.6616 31.408 38.9336 31.408C40.4936 31.408 41.7656 31.984 41.7656 34.816C41.4776 35.344 40.7096 36.28 38.4296 36.664C35.7176 37.12 33.4616 37.768 33.5576 40.288C33.6296 42.376 35.8136 43.24 37.7096 43.144C40.3496 43 41.5256 40.528 41.7656 39.232C41.7656 39.448 41.7656 40.864 41.7656 41.056C41.7656 42.472 42.5336 43.144 43.7096 43.144C44.7896 43.144 45.6056 42.328 45.9896 41.752L45.8696 41.656ZM41.7656 38.08C41.7656 40.216 40.3256 42.568 38.3576 42.76C36.6296 42.928 35.0696 42.088 34.9496 40.192C34.8296 37.96 36.6776 37.216 38.1416 36.904C40.7096 36.4 41.2616 35.68 41.7656 35.104C41.7656 35.872 41.7656 37 41.7656 38.08ZM51.5083 36.16C49.9003 35.464 48.4123 34.984 48.4123 33.64C48.3883 32.152 50.0443 31.432 51.3163 31.48C54.1723 31.576 55.1563 32.848 55.1563 35.056C55.1563 35.44 55.1563 35.968 55.1563 35.968H55.3003V31.144H55.1563C55.1563 31.144 55.1563 31.312 55.1563 31.6C55.1563 31.936 55.1083 32.272 54.8203 32.272C54.3643 32.248 53.7643 31.288 51.3403 31.216C50.5723 31.192 47.7883 31.552 47.4283 33.664C47.0923 35.704 48.6523 36.712 51.2443 37.72C53.5483 38.608 55.1083 39.232 55.0123 40.72C54.9163 42.256 53.1163 42.976 51.2683 42.88C49.5403 42.808 46.8763 41.704 46.8763 39.304C46.8763 39.04 46.8763 38.392 46.8763 38.392H46.7083V43.216H46.8763C46.8763 43.216 46.8763 43.072 46.8763 42.856C46.8763 42.352 46.9483 41.872 47.2843 41.8C47.9083 41.704 48.9883 43.072 51.5563 43.144C53.8123 43.216 55.8523 42.208 56.0923 40.096C56.3563 37.72 53.3563 36.952 51.5083 36.16ZM64.9335 40.888C64.4535 41.488 63.6615 42.808 62.2935 42.808C61.3095 42.808 60.4455 42.304 60.4455 40V31.6H64.0215V31.384H60.4455V27.664C60.4455 27.664 60.3495 27.664 60.2775 27.664C59.8695 29.632 58.6455 31.384 56.8455 31.384V31.6H58.8855V39.592C58.8855 42.088 59.8935 43.144 62.0295 43.144C63.5895 43.144 64.6695 41.464 65.0535 41.008L64.9335 40.888ZM78.4406 38.176C77.7926 39.352 75.8966 42.64 72.0806 42.4C69.5366 42.232 67.2806 40.648 66.9686 37.312C66.9206 36.688 66.9446 36.112 67.0166 35.56H76.4246C76.4246 32.944 74.3846 31.216 71.7686 31.216C68.3606 31.216 65.4806 34.192 65.5526 37.768C65.6246 41.056 68.0966 43.144 71.6486 43.144C75.6806 43.144 77.8166 39.592 78.5606 38.272L78.4406 38.176ZM71.3606 31.48C73.9766 31.504 75.0086 33.4 74.9126 35.368H67.0646C67.4966 32.968 69.2246 31.456 71.3606 31.48ZM86.2511 31.312C84.4991 31.096 83.2031 31.336 82.4591 32.32C81.9311 33.04 81.5471 33.928 81.3071 34.792V31.384H77.8511V31.6H78.3311C79.5311 31.6 79.7711 31.84 79.7711 33.064V41.344C79.7711 42.544 79.5311 42.808 78.3311 42.808H77.8511V43H84.0671V42.808H82.7471C81.5231 42.808 81.3071 42.544 81.3071 41.344V36.208C81.3071 35.056 81.7151 33.352 82.6271 32.512C83.6351 31.552 84.6191 31.936 85.7471 32.488C86.4911 32.824 87.1151 32.656 87.2111 32.2C87.3551 31.648 86.9711 31.408 86.2511 31.312Z" fill="white"/>
<path d="M91 80L96 77.1133L96 82.8868L91 80ZM149 80.5L95.5 80.5L95.5 79.5L149 79.5L149 80.5Z" fill="white"/>
<path d="M149 20L151.887 25L146.113 25L149 20ZM148.5 80L148.5 24.5L149.5 24.5L149.5 80L148.5 80Z" fill="white"/>
<rect x="0.5" y="0.5" width="165" height="99" stroke="white"/>
</svg>
