<svg width="583" height="306" viewBox="0 0 583 306" fill="none" xmlns="http://www.w3.org/2000/svg">
<g filter="url(#filter0_d_104_48)">
<path d="M214.919 5.384C222.299 5.384 225.503 8.48 225.503 16.148C225.503 23.816 222.299 26.912 214.919 26.912H209.699V5.384H214.919ZM216.143 29C223.883 29 227.951 24.572 227.951 16.148C227.951 7.724 223.883 3.296 216.143 3.296H207.251V29H216.143ZM237.872 9.884C232.184 9.884 229.088 14.384 229.088 19.712C229.088 25.04 232.184 29.54 237.872 29.54C243.56 29.54 246.656 25.04 246.656 19.712C246.656 14.384 243.56 9.884 237.872 9.884ZM237.872 11.792C242.228 11.792 244.388 15.752 244.388 19.712C244.388 23.672 242.228 27.632 237.872 27.632C233.516 27.632 231.356 23.672 231.356 19.712C231.356 15.752 233.516 11.792 237.872 11.792ZM261.703 31.052C261.055 32.816 260.479 33.968 258.463 33.968C257.959 33.968 257.455 33.896 256.915 33.788V35.696C257.275 35.84 257.743 35.876 258.643 35.876C261.487 35.912 262.351 35.012 263.539 31.844L271.603 10.424H269.335L263.611 26.264L257.491 10.424H255.079L262.495 28.928L261.703 31.052ZM280.239 9.884C274.551 9.884 271.455 14.384 271.455 19.712C271.455 25.04 274.551 29.54 280.239 29.54C285.927 29.54 289.023 25.04 289.023 19.712C289.023 14.384 285.927 9.884 280.239 9.884ZM280.239 11.792C284.595 11.792 286.755 15.752 286.755 19.712C286.755 23.672 284.595 27.632 280.239 27.632C275.883 27.632 273.723 23.672 273.723 19.712C273.723 15.752 275.883 11.792 280.239 11.792ZM303.735 10.424V20.18C303.735 23.96 302.043 27.632 298.155 27.632C294.555 27.632 293.187 25.868 293.187 22.52V10.424H290.919V22.484C290.919 26.804 292.755 29.54 297.435 29.54C300.207 29.54 302.655 28.136 303.843 25.652H303.915V29H306.003V10.424H303.735ZM324.018 29L328.554 13.376H328.626L333.198 29H335.682L341.658 10.424H339.246L334.494 26.336H334.422L329.886 10.424H327.33L322.794 26.336H322.722L317.97 10.424H315.558L321.534 29H324.018ZM344.726 16.112C344.798 13.088 346.886 11.792 349.694 11.792C352.358 11.792 354.554 12.548 354.554 15.608C354.554 17.66 353.51 17.912 351.638 18.128C346.742 18.704 341.666 18.884 341.666 24.104C341.666 27.848 344.474 29.54 347.894 29.54C351.458 29.54 353.078 28.172 354.662 25.76H354.734C354.734 27.704 355.094 29 357.398 29C358.01 29 358.37 28.964 358.874 28.856V26.948C358.694 27.02 358.406 27.092 358.154 27.092C357.254 27.092 356.822 26.588 356.822 25.724V15.86C356.822 10.892 353.258 9.884 349.982 9.884C345.734 9.884 342.674 11.756 342.458 16.112H344.726ZM354.554 21.8C354.554 25.436 351.53 27.632 348.074 27.632C345.95 27.632 343.934 26.228 343.934 23.96C343.934 20.324 348.722 20.36 352.574 19.676C353.186 19.568 354.194 19.388 354.482 18.848H354.554V21.8ZM362.134 29V18.164C362.134 14.528 364.366 11.792 367.966 11.792C371.638 11.792 372.682 14.204 372.682 17.408V29H374.95V17.048C374.95 12.62 373.366 9.884 368.146 9.884C365.518 9.884 363.034 11.396 362.206 13.628H362.134V10.424H359.866V29H362.134ZM379.13 4.844V10.424H375.89V12.332H379.13V25.04C379.13 28.208 380.138 29.216 383.162 29.216C383.846 29.216 384.494 29.144 385.178 29.144V27.2C384.53 27.272 383.882 27.344 383.234 27.308C381.614 27.236 381.398 26.336 381.398 24.86V12.332H385.178V10.424H381.398V4.844H379.13Z" fill="#CFF3F3"/>
<path d="M253.869 257.12V262.184H249.453V258.704H238.245V267.248H249.453V263.576H253.869V269.024H255.477V257.12H253.869ZM239.853 260.072H247.845V265.856H239.853V260.072ZM240.621 269.672V278.288H255.477V269.672H240.621ZM242.157 271.04H253.941V276.896H242.157V271.04ZM268.302 258.296V256.688H266.694V258.296H259.926V259.688H275.07V258.296H268.302ZM259.23 263.936L260.022 265.304L267.366 261.392L274.902 265.328L275.646 263.936L267.342 259.76L259.23 263.936ZM257.838 266.528V267.92H266.694V270.056H260.166V278.288H274.83V270.056H268.302V267.92H277.158V266.528H257.838ZM261.774 271.448H273.222V276.896H261.774V271.448ZM286.359 258.512C283.071 258.512 280.287 259.928 280.287 263.528C280.287 266.84 283.047 268.256 286.431 268.256C289.959 268.256 292.479 266.864 292.479 263.48C292.479 259.832 289.695 258.512 286.359 258.512ZM295.167 257.12V271.736H279.063V273.128H295.167V278.48H296.775V257.12H295.167ZM286.455 266.984C284.055 267.008 281.823 265.832 281.823 263.528C281.823 261.128 283.983 259.832 286.359 259.832C288.735 259.832 290.991 261.104 290.991 263.432C290.991 265.76 288.831 266.96 286.455 266.984ZM305.745 258.704V269.312H317.121V258.704H305.745ZM321.537 257.12V278.48H323.145V257.12H321.537ZM307.353 260.072H315.513V267.92H307.353V260.072ZM332.898 258.728V256.736H331.266V258.728H325.938V260.12H338.37V258.728H332.898ZM343.554 262.376V257.12H341.946V269.84H343.554V263.744H346.434V262.376H343.554ZM332.202 260.864C328.794 260.864 326.25 262.016 326.25 264.8C326.25 267.584 328.794 268.736 332.202 268.736C335.61 268.736 338.154 267.584 338.154 264.8C338.154 262.016 335.61 260.864 332.202 260.864ZM328.146 270.608V271.976H341.946V278.48H343.554V270.608H328.146ZM332.202 267.416C329.682 267.392 327.81 266.696 327.81 264.8C327.81 262.904 329.682 262.208 332.202 262.184C334.746 262.16 336.594 262.904 336.594 264.8C336.594 266.696 334.746 267.44 332.202 267.416Z" fill="#CFF3F3"/>
<g filter="url(#filter1_dii_104_48)">
<path d="M104.05 54.552H106.61V53.4H77.8101V54.552H80.3701C86.8981 54.552 88.0501 55.832 88.0501 62.36V96.792H32.2421V62.36C32.2421 55.832 33.3941 54.552 39.9221 54.552H42.4821V53.4H13.8101V54.552H16.2421C22.7701 54.552 23.9221 55.832 23.9221 62.36V134.168C23.9221 140.568 22.7701 141.976 16.2421 141.976H13.8101V143H42.4821V141.976H39.9221C33.3941 141.976 32.2421 140.568 32.2421 134.168V98.2H88.0501V134.168C88.0501 140.568 86.8981 141.976 80.3701 141.976H77.8101V143H106.61V141.976H104.05C97.5221 141.976 96.3701 140.568 96.3701 134.168V62.36C96.3701 55.832 97.5221 54.552 104.05 54.552Z" fill="white"/>
<path d="M137.925 141.976C131.397 141.976 130.245 140.568 130.245 134.168V81.048H111.685V82.2H114.245C120.773 82.2 121.925 83.48 121.925 89.88V134.168C121.925 140.568 120.773 141.976 114.245 141.976H111.685V143H140.485V141.976H137.925ZM125.381 68.12C128.581 68.12 131.269 65.56 131.269 62.232C131.269 59.032 128.581 56.344 125.381 56.344C122.053 56.344 119.493 59.032 119.493 62.232C119.493 65.56 122.053 68.12 125.381 68.12Z" fill="white"/>
<path d="M181.779 146.584C160.531 145.176 152.211 144.024 151.571 139.672C151.315 136.984 154.387 134.68 158.355 133.016C162.451 131.352 171.411 130.84 171.411 130.84C172.051 130.968 172.819 130.968 173.587 130.968C189.715 130.968 200.979 120.472 200.979 105.624C200.979 94.744 194.963 86.296 185.363 82.456C188.051 82.072 193.555 82.2 203.539 82.712C208.787 83.096 210.579 82.072 210.579 79.896C210.579 77.592 208.659 76.44 204.563 77.208C195.219 78.744 187.155 81.048 184.211 81.944C181.011 80.92 177.427 80.152 173.587 80.152C157.587 80.152 146.323 90.776 146.323 105.624C146.323 118.296 154.515 127.768 167.059 130.328C158.739 130.84 144.019 135.192 144.915 144.152C145.555 150.808 155.539 152.984 165.523 153.88C162.963 154.904 160.019 156.312 157.203 158.104C148.499 163.352 140.179 170.136 139.283 179.992C137.747 195.48 160.147 201.112 174.483 198.552C190.483 195.736 210.323 179.736 213.267 164.76C215.955 150.424 205.075 148.12 181.779 146.584ZM154.899 105.624C154.899 91.032 161.555 81.432 173.587 81.432C185.747 81.432 192.403 91.032 192.403 105.624C192.403 120.216 185.747 129.816 173.587 129.816C161.555 129.816 154.899 120.216 154.899 105.624ZM176.403 192.664C166.163 193.56 155.667 191 149.267 186.52C142.099 181.4 141.203 172.824 148.755 165.784C155.795 159.128 162.835 155.672 167.443 154.008C172.179 154.392 176.915 154.52 180.243 154.648C190.867 155.416 208.403 153.112 209.811 164.504C211.091 176.024 197.907 190.616 176.403 192.664Z" fill="white"/>
<path d="M285.907 141.976C279.379 141.976 278.227 140.568 278.227 134.168C278.227 134.168 278.227 113.56 278.227 104.344C278.227 88.728 268.499 80.152 253.907 80.152C242.387 80.152 233.939 87.704 230.995 95.896V53.4H212.435V54.552H214.995C221.523 54.552 222.675 55.832 222.675 62.232V134.168C222.675 140.568 221.523 141.976 214.995 141.976H212.435V143H241.235V141.976H238.675C232.147 141.976 230.995 140.568 230.995 134.168V103.192C230.995 93.592 239.699 81.816 252.371 81.816C262.995 81.816 269.907 89.88 269.907 102.68C269.907 109.72 269.907 124.568 269.907 134.168C269.907 140.568 268.755 141.976 262.227 141.976H259.667V143H288.467V141.976H285.907Z" fill="white"/>
<path d="M368.465 81.048V82.2H368.721C375.249 82.2 377.041 83.736 374.609 89.88L357.713 133.656L338.897 89.88C336.337 84.12 336.337 82.2 342.865 82.2H344.785V81.048H318.161V82.2H319.569C326.097 82.2 327.889 83.864 330.577 90.008L336.209 102.808L322.897 134.296L303.057 89.88C300.369 84.12 300.369 82.2 306.769 82.2H308.689V81.048H282.065V82.2H283.473C290.001 82.2 291.793 83.864 294.609 90.008L319.185 143H320.593L336.977 104.344L354.001 143H355.537L376.017 89.88C378.065 84.76 379.729 82.2 385.617 82.2H386.513V81.048H368.465Z" fill="white"/>
<path d="M449.117 135.832C446.685 139.672 442.461 142.616 439.389 142.232C436.829 141.976 435.421 139.928 435.421 133.4V103.704C435.421 87.32 426.973 80.152 412.381 80.152C405.597 80.152 398.045 82.968 392.669 86.296C390.365 87.832 389.597 90.264 390.877 91.8C392.413 93.72 394.973 93.72 398.173 90.648C402.269 86.68 405.341 81.176 412.125 81.176C420.445 81.176 427.229 84.248 427.229 99.352C425.693 102.168 421.597 107.16 409.437 109.208C394.973 111.64 382.941 115.096 383.453 128.536C383.837 139.672 395.485 144.28 405.597 143.768C419.677 143 425.949 129.816 427.229 122.904C427.229 124.056 427.229 131.608 427.229 132.632C427.229 140.184 431.325 143.768 437.597 143.768C443.357 143.768 447.709 139.416 449.757 136.344L449.117 135.832ZM427.229 116.76C427.229 128.152 419.549 140.696 409.053 141.72C399.837 142.616 391.517 138.136 390.877 128.024C390.237 116.12 400.093 112.152 407.901 110.488C421.597 107.8 424.541 103.96 427.229 100.888C427.229 104.984 427.229 111 427.229 116.76Z" fill="white"/>
<path d="M491.661 81.048V82.2H491.917C498.445 82.2 500.109 83.608 497.421 90.008L479.245 133.144L460.813 90.008C458.253 83.992 458.381 82.2 464.909 82.2H466.701V81.048H440.077V82.2H441.485C448.013 82.2 449.805 83.736 452.365 90.008L474.893 143C465.037 164.888 457.997 165.272 445.197 163.48C441.997 163.096 439.949 163.352 439.693 165.912C439.437 168.472 441.485 169.368 444.685 169.752C455.437 171.032 465.805 167.192 476.429 143L498.829 90.008C501.005 84.76 502.925 82.2 508.685 82.2H509.709V81.048H491.661Z" fill="white"/>
<path d="M568.088 70.168C565.4 57.368 552.984 51.992 541.336 52.504C525.08 53.272 524.312 63.768 521.752 63C520.856 62.616 521.112 61.08 521.112 55.192V53.4H519.96V83.608H521.112V78.744C521.112 66.584 524.824 54.808 540.184 53.912C552.728 53.144 558.104 63.64 559 73.496C559.896 82.968 556.696 91.544 548.76 104.216C544.28 111.512 542.616 113.432 536.856 122.392L537.752 122.904C542.232 116.504 544.792 113.304 549.912 105.368C560.536 88.984 570.648 82.968 568.088 70.168ZM541.592 131.224C538.008 131.224 535.064 134.04 535.064 137.496C535.064 140.952 538.008 143.768 541.592 143.768C545.176 143.768 548.12 140.952 548.12 137.496C548.12 134.04 545.176 131.224 541.592 131.224Z" fill="white"/>
</g>
</g>
<defs>
<filter id="filter0_d_104_48" x="0.215468" y="3.296" width="581.869" height="302.373" filterUnits="userSpaceOnUse" color-interpolation-filters="sRGB">
<feFlood flood-opacity="0" result="BackgroundImageFix"/>
<feColorMatrix in="SourceAlpha" type="matrix" values="0 0 0 0 0 0 0 0 0 0 0 0 0 0 0 0 0 0 127 0" result="hardAlpha"/>
<feOffset dy="13.5946"/>
<feGaussianBlur stdDeviation="6.7973"/>
<feComposite in2="hardAlpha" operator="out"/>
<feColorMatrix type="matrix" values="0 0 0 0 0 0 0 0 0 0 0 0 0 0 0 0 0 0 0.25 0"/>
<feBlend mode="normal" in2="BackgroundImageFix" result="effect1_dropShadow_104_48"/>
<feBlend mode="normal" in="SourceGraphic" in2="effect1_dropShadow_104_48" result="shape"/>
</filter>
<filter id="filter1_dii_104_48" x="7.81006" y="46.4707" width="566.679" height="158.675" filterUnits="userSpaceOnUse" color-interpolation-filters="sRGB">
<feFlood flood-opacity="0" result="BackgroundImageFix"/>
<feColorMatrix in="SourceAlpha" type="matrix" values="0 0 0 0 0 0 0 0 0 0 0 0 0 0 0 0 0 0 127 0" result="hardAlpha"/>
<feOffset/>
<feGaussianBlur stdDeviation="3"/>
<feComposite in2="hardAlpha" operator="out"/>
<feColorMatrix type="matrix" values="0 0 0 0 1 0 0 0 0 1 0 0 0 0 1 0 0 0 0.25 0"/>
<feBlend mode="normal" in2="BackgroundImageFix" result="effect1_dropShadow_104_48"/>
<feBlend mode="normal" in="SourceGraphic" in2="effect1_dropShadow_104_48" result="shape"/>
<feColorMatrix in="SourceAlpha" type="matrix" values="0 0 0 0 0 0 0 0 0 0 0 0 0 0 0 0 0 0 127 0" result="hardAlpha"/>
<feOffset dy="3"/>
<feGaussianBlur stdDeviation="4.5"/>
<feComposite in2="hardAlpha" operator="arithmetic" k2="-1" k3="1"/>
<feColorMatrix type="matrix" values="0 0 0 0 0.155163 0 0 0 0 0.908333 0 0 0 0 0.863143 0 0 0 0.43 0"/>
<feBlend mode="normal" in2="shape" result="effect2_innerShadow_104_48"/>
<feColorMatrix in="SourceAlpha" type="matrix" values="0 0 0 0 0 0 0 0 0 0 0 0 0 0 0 0 0 0 127 0" result="hardAlpha"/>
<feOffset dy="-10"/>
<feGaussianBlur stdDeviation="1"/>
<feComposite in2="hardAlpha" operator="arithmetic" k2="-1" k3="1"/>
<feColorMatrix type="matrix" values="0 0 0 0 1 0 0 0 0 1 0 0 0 0 1 0 0 0 0.25 0"/>
<feBlend mode="normal" in2="effect2_innerShadow_104_48" result="effect3_innerShadow_104_48"/>
</filter>
</defs>
</svg>
