<svg width="583" height="227" viewBox="0 0 583 227" fill="none" xmlns="http://www.w3.org/2000/svg">
<g filter="url(#filter0_d_104_48)">
<path d="M213.419 5.384C220.799 5.384 224.003 8.48 224.003 16.148C224.003 23.816 220.799 26.912 213.419 26.912H208.199V5.384H213.419ZM214.643 29C222.383 29 226.451 24.572 226.451 16.148C226.451 7.724 222.383 3.296 214.643 3.296H205.751V29H214.643ZM236.372 9.884C230.684 9.884 227.588 14.384 227.588 19.712C227.588 25.04 230.684 29.54 236.372 29.54C242.06 29.54 245.156 25.04 245.156 19.712C245.156 14.384 242.06 9.884 236.372 9.884ZM236.372 11.792C240.728 11.792 242.888 15.752 242.888 19.712C242.888 23.672 240.728 27.632 236.372 27.632C232.016 27.632 229.856 23.672 229.856 19.712C229.856 15.752 232.016 11.792 236.372 11.792ZM260.203 31.052C259.555 32.816 258.979 33.968 256.963 33.968C256.459 33.968 255.955 33.896 255.415 33.788V35.696C255.775 35.84 256.243 35.876 257.143 35.876C259.987 35.912 260.851 35.012 262.039 31.844L270.103 10.424H267.835L262.111 26.264L255.991 10.424H253.579L260.995 28.928L260.203 31.052ZM278.739 9.884C273.051 9.884 269.955 14.384 269.955 19.712C269.955 25.04 273.051 29.54 278.739 29.54C284.427 29.54 287.523 25.04 287.523 19.712C287.523 14.384 284.427 9.884 278.739 9.884ZM278.739 11.792C283.095 11.792 285.255 15.752 285.255 19.712C285.255 23.672 283.095 27.632 278.739 27.632C274.383 27.632 272.223 23.672 272.223 19.712C272.223 15.752 274.383 11.792 278.739 11.792ZM302.235 10.424V20.18C302.235 23.96 300.543 27.632 296.655 27.632C293.055 27.632 291.687 25.868 291.687 22.52V10.424H289.419V22.484C289.419 26.804 291.255 29.54 295.935 29.54C298.707 29.54 301.155 28.136 302.343 25.652H302.415V29H304.503V10.424H302.235ZM322.518 29L327.054 13.376H327.126L331.698 29H334.182L340.158 10.424H337.746L332.994 26.336H332.922L328.386 10.424H325.83L321.294 26.336H321.222L316.47 10.424H314.058L320.034 29H322.518ZM343.226 16.112C343.298 13.088 345.386 11.792 348.194 11.792C350.858 11.792 353.054 12.548 353.054 15.608C353.054 17.66 352.01 17.912 350.138 18.128C345.242 18.704 340.166 18.884 340.166 24.104C340.166 27.848 342.974 29.54 346.394 29.54C349.958 29.54 351.578 28.172 353.162 25.76H353.234C353.234 27.704 353.594 29 355.898 29C356.51 29 356.87 28.964 357.374 28.856V26.948C357.194 27.02 356.906 27.092 356.654 27.092C355.754 27.092 355.322 26.588 355.322 25.724V15.86C355.322 10.892 351.758 9.884 348.482 9.884C344.234 9.884 341.174 11.756 340.958 16.112H343.226ZM353.054 21.8C353.054 25.436 350.03 27.632 346.574 27.632C344.45 27.632 342.434 26.228 342.434 23.96C342.434 20.324 347.222 20.36 351.074 19.676C351.686 19.568 352.694 19.388 352.982 18.848H353.054V21.8ZM360.634 29V18.164C360.634 14.528 362.866 11.792 366.466 11.792C370.138 11.792 371.182 14.204 371.182 17.408V29H373.45V17.048C373.45 12.62 371.866 9.884 366.646 9.884C364.018 9.884 361.534 11.396 360.706 13.628H360.634V10.424H358.366V29H360.634ZM377.63 4.844V10.424H374.39V12.332H377.63V25.04C377.63 28.208 378.638 29.216 381.662 29.216C382.346 29.216 382.994 29.144 383.678 29.144V27.2C383.03 27.272 382.382 27.344 381.734 27.308C380.114 27.236 379.898 26.336 379.898 24.86V12.332H383.678V10.424H379.898V4.844H377.63Z" fill="#CFF3F3"/>
<g filter="url(#filter1_dii_104_48)">
<path d="M104.05 54.552H106.61V53.4H77.8101V54.552H80.3701C86.8981 54.552 88.0501 55.832 88.0501 62.36V96.792H32.2421V62.36C32.2421 55.832 33.3941 54.552 39.9221 54.552H42.4821V53.4H13.8101V54.552H16.2421C22.7701 54.552 23.9221 55.832 23.9221 62.36V134.168C23.9221 140.568 22.7701 141.976 16.2421 141.976H13.8101V143H42.4821V141.976H39.9221C33.3941 141.976 32.2421 140.568 32.2421 134.168V98.2H88.0501V134.168C88.0501 140.568 86.8981 141.976 80.3701 141.976H77.8101V143H106.61V141.976H104.05C97.5221 141.976 96.3701 140.568 96.3701 134.168V62.36C96.3701 55.832 97.5221 54.552 104.05 54.552Z" fill="white"/>
<path d="M137.925 141.976C131.397 141.976 130.245 140.568 130.245 134.168V81.048H111.685V82.2H114.245C120.773 82.2 121.925 83.48 121.925 89.88V134.168C121.925 140.568 120.773 141.976 114.245 141.976H111.685V143H140.485V141.976H137.925ZM125.381 68.12C128.581 68.12 131.269 65.56 131.269 62.232C131.269 59.032 128.581 56.344 125.381 56.344C122.053 56.344 119.493 59.032 119.493 62.232C119.493 65.56 122.053 68.12 125.381 68.12Z" fill="white"/>
<path d="M181.779 146.584C160.531 145.176 152.211 144.024 151.571 139.672C151.315 136.984 154.387 134.68 158.355 133.016C162.451 131.352 171.411 130.84 171.411 130.84C172.051 130.968 172.819 130.968 173.587 130.968C189.715 130.968 200.979 120.472 200.979 105.624C200.979 94.744 194.963 86.296 185.363 82.456C188.051 82.072 193.555 82.2 203.539 82.712C208.787 83.096 210.579 82.072 210.579 79.896C210.579 77.592 208.659 76.44 204.563 77.208C195.219 78.744 187.155 81.048 184.211 81.944C181.011 80.92 177.427 80.152 173.587 80.152C157.587 80.152 146.323 90.776 146.323 105.624C146.323 118.296 154.515 127.768 167.059 130.328C158.739 130.84 144.019 135.192 144.915 144.152C145.555 150.808 155.539 152.984 165.523 153.88C162.963 154.904 160.019 156.312 157.203 158.104C148.499 163.352 140.179 170.136 139.283 179.992C137.747 195.48 160.147 201.112 174.483 198.552C190.483 195.736 210.323 179.736 213.267 164.76C215.955 150.424 205.075 148.12 181.779 146.584ZM154.899 105.624C154.899 91.032 161.555 81.432 173.587 81.432C185.747 81.432 192.403 91.032 192.403 105.624C192.403 120.216 185.747 129.816 173.587 129.816C161.555 129.816 154.899 120.216 154.899 105.624ZM176.403 192.664C166.163 193.56 155.667 191 149.267 186.52C142.099 181.4 141.203 172.824 148.755 165.784C155.795 159.128 162.835 155.672 167.443 154.008C172.179 154.392 176.915 154.52 180.243 154.648C190.867 155.416 208.403 153.112 209.811 164.504C211.091 176.024 197.907 190.616 176.403 192.664Z" fill="white"/>
<path d="M285.907 141.976C279.379 141.976 278.227 140.568 278.227 134.168C278.227 134.168 278.227 113.56 278.227 104.344C278.227 88.728 268.499 80.152 253.907 80.152C242.387 80.152 233.939 87.704 230.995 95.896V53.4H212.435V54.552H214.995C221.523 54.552 222.675 55.832 222.675 62.232V134.168C222.675 140.568 221.523 141.976 214.995 141.976H212.435V143H241.235V141.976H238.675C232.147 141.976 230.995 140.568 230.995 134.168V103.192C230.995 93.592 239.699 81.816 252.371 81.816C262.995 81.816 269.907 89.88 269.907 102.68C269.907 109.72 269.907 124.568 269.907 134.168C269.907 140.568 268.755 141.976 262.227 141.976H259.667V143H288.467V141.976H285.907Z" fill="white"/>
<path d="M368.465 81.048V82.2H368.721C375.249 82.2 377.041 83.736 374.609 89.88L357.713 133.656L338.897 89.88C336.337 84.12 336.337 82.2 342.865 82.2H344.785V81.048H318.161V82.2H319.569C326.097 82.2 327.889 83.864 330.577 90.008L336.209 102.808L322.897 134.296L303.057 89.88C300.369 84.12 300.369 82.2 306.769 82.2H308.689V81.048H282.065V82.2H283.473C290.001 82.2 291.793 83.864 294.609 90.008L319.185 143H320.593L336.977 104.344L354.001 143H355.537L376.017 89.88C378.065 84.76 379.729 82.2 385.617 82.2H386.513V81.048H368.465Z" fill="white"/>
<path d="M449.117 135.832C446.685 139.672 442.461 142.616 439.389 142.232C436.829 141.976 435.421 139.928 435.421 133.4V103.704C435.421 87.32 426.973 80.152 412.381 80.152C405.597 80.152 398.045 82.968 392.669 86.296C390.365 87.832 389.597 90.264 390.877 91.8C392.413 93.72 394.973 93.72 398.173 90.648C402.269 86.68 405.341 81.176 412.125 81.176C420.445 81.176 427.229 84.248 427.229 99.352C425.693 102.168 421.597 107.16 409.437 109.208C394.973 111.64 382.941 115.096 383.453 128.536C383.837 139.672 395.485 144.28 405.597 143.768C419.677 143 425.949 129.816 427.229 122.904C427.229 124.056 427.229 131.608 427.229 132.632C427.229 140.184 431.325 143.768 437.597 143.768C443.357 143.768 447.709 139.416 449.757 136.344L449.117 135.832ZM427.229 116.76C427.229 128.152 419.549 140.696 409.053 141.72C399.837 142.616 391.517 138.136 390.877 128.024C390.237 116.12 400.093 112.152 407.901 110.488C421.597 107.8 424.541 103.96 427.229 100.888C427.229 104.984 427.229 111 427.229 116.76Z" fill="white"/>
<path d="M491.661 81.048V82.2H491.917C498.445 82.2 500.109 83.608 497.421 90.008L479.245 133.144L460.813 90.008C458.253 83.992 458.381 82.2 464.909 82.2H466.701V81.048H440.077V82.2H441.485C448.013 82.2 449.805 83.736 452.365 90.008L474.893 143C465.037 164.888 457.997 165.272 445.197 163.48C441.997 163.096 439.949 163.352 439.693 165.912C439.437 168.472 441.485 169.368 444.685 169.752C455.437 171.032 465.805 167.192 476.429 143L498.829 90.008C501.005 84.76 502.925 82.2 508.685 82.2H509.709V81.048H491.661Z" fill="white"/>
<path d="M568.088 70.168C565.4 57.368 552.984 51.992 541.336 52.504C525.08 53.272 524.312 63.768 521.752 63C520.856 62.616 521.112 61.08 521.112 55.192V53.4H519.96V83.608H521.112V78.744C521.112 66.584 524.824 54.808 540.184 53.912C552.728 53.144 558.104 63.64 559 73.496C559.896 82.968 556.696 91.544 548.76 104.216C544.28 111.512 542.616 113.432 536.856 122.392L537.752 122.904C542.232 116.504 544.792 113.304 549.912 105.368C560.536 88.984 570.648 82.968 568.088 70.168ZM541.592 131.224C538.008 131.224 535.064 134.04 535.064 137.496C535.064 140.952 538.008 143.768 541.592 143.768C545.176 143.768 548.12 140.952 548.12 137.496C548.12 134.04 545.176 131.224 541.592 131.224Z" fill="white"/>
</g>
</g>
<defs>
<filter id="filter0_d_104_48" x="0.215468" y="3.296" width="581.869" height="223.039" filterUnits="userSpaceOnUse" color-interpolation-filters="sRGB">
<feFlood flood-opacity="0" result="BackgroundImageFix"/>
<feColorMatrix in="SourceAlpha" type="matrix" values="0 0 0 0 0 0 0 0 0 0 0 0 0 0 0 0 0 0 127 0" result="hardAlpha"/>
<feOffset dy="13.5946"/>
<feGaussianBlur stdDeviation="6.7973"/>
<feComposite in2="hardAlpha" operator="out"/>
<feColorMatrix type="matrix" values="0 0 0 0 0 0 0 0 0 0 0 0 0 0 0 0 0 0 0.25 0"/>
<feBlend mode="normal" in2="BackgroundImageFix" result="effect1_dropShadow_104_48"/>
<feBlend mode="normal" in="SourceGraphic" in2="effect1_dropShadow_104_48" result="shape"/>
</filter>
<filter id="filter1_dii_104_48" x="7.81006" y="46.4707" width="566.679" height="158.675" filterUnits="userSpaceOnUse" color-interpolation-filters="sRGB">
<feFlood flood-opacity="0" result="BackgroundImageFix"/>
<feColorMatrix in="SourceAlpha" type="matrix" values="0 0 0 0 0 0 0 0 0 0 0 0 0 0 0 0 0 0 127 0" result="hardAlpha"/>
<feOffset/>
<feGaussianBlur stdDeviation="3"/>
<feComposite in2="hardAlpha" operator="out"/>
<feColorMatrix type="matrix" values="0 0 0 0 1 0 0 0 0 1 0 0 0 0 1 0 0 0 0.25 0"/>
<feBlend mode="normal" in2="BackgroundImageFix" result="effect1_dropShadow_104_48"/>
<feBlend mode="normal" in="SourceGraphic" in2="effect1_dropShadow_104_48" result="shape"/>
<feColorMatrix in="SourceAlpha" type="matrix" values="0 0 0 0 0 0 0 0 0 0 0 0 0 0 0 0 0 0 127 0" result="hardAlpha"/>
<feOffset dy="3"/>
<feGaussianBlur stdDeviation="4.5"/>
<feComposite in2="hardAlpha" operator="arithmetic" k2="-1" k3="1"/>
<feColorMatrix type="matrix" values="0 0 0 0 0.155163 0 0 0 0 0.908333 0 0 0 0 0.863143 0 0 0 0.43 0"/>
<feBlend mode="normal" in2="shape" result="effect2_innerShadow_104_48"/>
<feColorMatrix in="SourceAlpha" type="matrix" values="0 0 0 0 0 0 0 0 0 0 0 0 0 0 0 0 0 0 127 0" result="hardAlpha"/>
<feOffset dy="-10"/>
<feGaussianBlur stdDeviation="1"/>
<feComposite in2="hardAlpha" operator="arithmetic" k2="-1" k3="1"/>
<feColorMatrix type="matrix" values="0 0 0 0 1 0 0 0 0 1 0 0 0 0 1 0 0 0 0.25 0"/>
<feBlend mode="normal" in2="effect2_innerShadow_104_48" result="effect3_innerShadow_104_48"/>
</filter>
</defs>
</svg>
