<svg width="941" height="555" viewBox="0 0 941 555" fill="none" xmlns="http://www.w3.org/2000/svg">
<g filter="url(#filter0_d_104_57)">
<line y1="-0.5" x2="705.734" y2="-0.5" transform="matrix(0.633598 0.773662 -0.736876 0.676028 489 1)" stroke="url(#paint0_linear_104_57)"/>
<line y1="-0.5" x2="705.734" y2="-0.5" transform="matrix(-0.633598 0.773662 0.736876 0.676028 452.152 1)" stroke="url(#paint1_linear_104_57)"/>
<path d="M470.854 28.6464C470.658 28.4512 470.342 28.4512 470.146 28.6464L466.964 31.8284C466.769 32.0237 466.769 32.3403 466.964 32.5355C467.16 32.7308 467.476 32.7308 467.672 32.5355L470.5 29.7071L473.328 32.5355C473.524 32.7308 473.84 32.7308 474.036 32.5355C474.231 32.3403 474.231 32.0237 474.036 31.8284L470.854 28.6464ZM470.5 119L471 119V119L470.5 119ZM470 29L470 119L471 119L471 29L470 29ZM470 119L470 159L471 159L471 119L470 119Z" fill="url(#paint2_linear_104_57)"/>
</g>
<defs>
<filter id="filter0_d_104_57" x="0.263184" y="0.323975" width="940.626" height="554.676" filterUnits="userSpaceOnUse" color-interpolation-filters="sRGB">
<feFlood flood-opacity="0" result="BackgroundImageFix"/>
<feColorMatrix in="SourceAlpha" type="matrix" values="0 0 0 0 0 0 0 0 0 0 0 0 0 0 0 0 0 0 127 0" result="hardAlpha"/>
<feOffset dy="4"/>
<feGaussianBlur stdDeviation="2"/>
<feComposite in2="hardAlpha" operator="out"/>
<feColorMatrix type="matrix" values="0 0 0 0 0 0 0 0 0 0 0 0 0 0 0 0 0 0 0.25 0"/>
<feBlend mode="normal" in2="BackgroundImageFix" result="effect1_dropShadow_104_57"/>
<feBlend mode="normal" in="SourceGraphic" in2="effect1_dropShadow_104_57" result="shape"/>
</filter>
<linearGradient id="paint0_linear_104_57" x1="390.594" y1="-34.2299" x2="-23.4398" y2="-36.6786" gradientUnits="userSpaceOnUse">
<stop/>
<stop offset="1" stop-color="#97FFF9"/>
<stop offset="1" stop-color="#97FFF9"/>
</linearGradient>
<linearGradient id="paint1_linear_104_57" x1="390.594" y1="-34.2299" x2="-23.4398" y2="-36.6786" gradientUnits="userSpaceOnUse">
<stop/>
<stop offset="1" stop-color="#97FFF9"/>
<stop offset="1" stop-opacity="0"/>
</linearGradient>
<linearGradient id="paint2_linear_104_57" x1="469" y1="116" x2="469" y2="29" gradientUnits="userSpaceOnUse">
<stop/>
<stop offset="0.0001"/>
<stop offset="1" stop-color="#97FFF9"/>
</linearGradient>
</defs>
</svg>
