<svg width="63" height="65" viewBox="0 0 63 65" fill="none" xmlns="http://www.w3.org/2000/svg">
<path d="M0.646447 61.3536C0.451185 61.1583 0.451185 60.8417 0.646447 60.6465L3.82843 57.4645C4.02369 57.2692 4.34027 57.2692 4.53553 57.4645C4.7308 57.6597 4.7308 57.9763 4.53553 58.1716L1.70711 61L4.53553 63.8284C4.7308 64.0237 4.7308 64.3403 4.53553 64.5355C4.34027 64.7308 4.02369 64.7308 3.82843 64.5355L0.646447 61.3536ZM59 61.5L1 61.5L1 60.5L59 60.5L59 61.5Z" fill="#97FFF9"/>
<path d="M58.6464 0.646449C58.8417 0.451187 59.1583 0.451187 59.3536 0.646449L62.5355 3.82843C62.7308 4.02369 62.7308 4.34027 62.5355 4.53554C62.3403 4.7308 62.0237 4.7308 61.8284 4.53554L59 1.70711L56.1716 4.53554C55.9763 4.7308 55.6597 4.7308 55.4645 4.53554C55.2692 4.34027 55.2692 4.02369 55.4645 3.82843L58.6464 0.646449ZM58.5 61L58.5 1L59.5 1L59.5 61L58.5 61Z" fill="#97FFF9"/>
</svg>
