<svg width="63" height="65" viewBox="0 0 63 65" fill="none" xmlns="http://www.w3.org/2000/svg">
<path d="M62.3536 61.3536C62.5488 61.1583 62.5488 60.8417 62.3536 60.6465L59.1716 57.4645C58.9763 57.2692 58.6597 57.2692 58.4645 57.4645C58.2692 57.6597 58.2692 57.9763 58.4645 58.1716L61.2929 61L58.4645 63.8284C58.2692 64.0237 58.2692 64.3403 58.4645 64.5355C58.6597 64.7308 58.9763 64.7308 59.1716 64.5355L62.3536 61.3536ZM4 61.5L62 61.5L62 60.5L4 60.5L4 61.5Z" fill="#97FFF9"/>
<path d="M4.35355 0.646449C4.15829 0.451187 3.84171 0.451187 3.64644 0.646449L0.464464 3.82843C0.269201 4.02369 0.269201 4.34027 0.464464 4.53554C0.659726 4.7308 0.976308 4.7308 1.17157 4.53554L4 1.70711L6.82842 4.53554C7.02369 4.7308 7.34027 4.7308 7.53553 4.53554C7.73079 4.34027 7.73079 4.02369 7.53553 3.82843L4.35355 0.646449ZM4.5 61L4.5 1L3.5 1L3.5 61L4.5 61Z" fill="#97FFF9"/>
</svg>
